<svg width="67" height="77" viewBox="0 0 67 77" fill="none" xmlns="http://www.w3.org/2000/svg">
<path fill-rule="evenodd" clip-rule="evenodd" d="M12.2881 12.3923H16.9011L33.1824 35.9968L35.1982 33.0627L28.6566 23.9115C26.2532 20.7699 23.2198 16.3076 22.4058 12.3829C21.8534 9.71302 22.3282 6.81671 23.8013 4.50532C25.4876 1.8543 28.1042 0.259918 31.4283 0.0334968C34.733 -0.192925 37.4563 0.712761 39.8791 3.2317C40.0148 3.36378 40.1407 3.41095 40.2861 3.36378C40.4412 3.30718 40.761 2.95811 40.9064 2.82603C42.0112 1.84487 43.1838 1.25995 44.4437 1.07126C44.4534 1.42033 44.463 1.59015 44.463 1.59015C41.7495 3.60907 42.2825 5.91102 42.2631 8.78847C42.1468 10.6942 41.4684 12.2131 40.228 13.3452C39.1425 14.4113 37.8439 15.0622 36.3224 15.2981C36.3224 14.8641 36.3224 14.6471 36.3224 14.6471C38.7646 13.2697 39.2685 10.647 38.4642 8.17524C37.5144 5.26006 34.3648 3.43926 31.0697 4.18456C29.1509 4.61853 27.484 5.91103 26.7862 7.82618C25.4585 11.4678 28.1624 16.0151 30.246 18.9963L37.6986 29.4683L49.5413 12.364H54.0477L54.0671 44.0914L49.3571 44.148V19.3548L35.4793 39.3082C36.5162 40.7139 37.4563 42.2234 38.28 43.8461C39.5593 46.3556 38.9972 49.7708 36.6519 51.5067C34.0837 53.4124 30.1684 52.8369 28.3853 50.1765C26.9025 47.9688 27.2611 45.7141 28.298 43.4687C28.7148 42.5725 29.2478 41.6479 29.9068 40.7045C31.5252 43.0159 32.3393 44.1763 32.3393 44.1763C31.6028 45.2612 30.7112 47.1575 31.7578 48.2896C32.2036 48.7802 32.9111 48.9972 33.6088 48.8368C34.9172 48.5349 35.2273 47.3556 35.0819 46.2141C34.9559 45.2235 33.4344 43.1668 32.7948 42.1857L16.998 19.3642L16.9399 43.9593H12.2881V12.3923Z" fill="white"/>
<path fill-rule="evenodd" clip-rule="evenodd" d="M38.4158 37.8648L40.9453 34.2421C41.7884 35.61 43.1355 37.6478 44.2403 39.629C45.7521 42.3366 46.6631 44.9311 46.508 47.7047C46.2755 51.7897 44.0271 55.4502 40.6642 57.7239C36.652 60.4221 32.039 60.6013 28.085 58.8937C25.604 57.8182 23.375 56.0068 21.7081 53.6011C21.65 53.5162 21.5531 53.3181 21.4465 53.3181C21.3108 53.3181 21.2526 53.4407 21.1848 53.5351C20.361 54.7049 19.2175 55.4125 17.7444 55.6483C17.5118 55.6861 16.9885 55.8559 16.94 55.5163C16.9013 55.2804 17.318 55.0729 17.5021 54.9408C20.1575 52.9785 19.7893 50.7897 20.0315 48.2425C20.1188 47.384 20.1963 46.5632 20.613 46.0254C21.2236 45.2518 22.716 45.082 23.3556 45.9217C23.6367 46.2896 23.8693 47.1481 24.0243 47.8651C24.1697 48.5727 24.3248 49.2331 24.5186 49.8557C25.7688 53.8087 30.217 56.3465 34.3358 55.8842C38.2705 55.4502 40.7902 52.9596 41.9725 49.5161C42.6703 47.4689 42.3893 45.4122 41.5946 43.4876C40.7999 41.6479 39.4334 39.6007 38.4158 37.8648Z" fill="white"/>
<path d="M62.3447 76.9225H66.3547V76.3326H63.1102V74.2778L65.798 74.2863V73.6709H63.1102V71.7064L66.2503 71.7149V71.1193L62.3447 71.1108V76.9225Z" fill="white"/>
<path d="M55.418 76.9226H56.1718V72.5024C56.1718 72.4713 56.1602 72.3923 56.1979 72.3867C56.2269 72.381 56.2414 72.4008 56.2588 72.4205L59.6628 76.5867C59.6976 76.629 59.7382 76.6714 59.7614 76.7193C59.7904 76.7758 59.8078 76.8407 59.8136 76.9197H60.582L60.5935 71.1193L59.8281 71.1165L59.8194 75.5536C59.8194 75.5734 59.8223 75.6016 59.7933 75.6072C59.7614 75.6157 59.7324 75.5762 59.715 75.5536L56.0878 71.108H55.418V76.9226Z" fill="white"/>
<path d="M53.6839 71.1108H52.9185V76.9479H53.6839V71.1108Z" fill="white"/>
<path d="M47.7168 71.0714H46.9688V76.9197H47.7168V71.0714Z" fill="#FEFEFE"/>
<path d="M47.7168 74.7379V76.9225H46.9688V71.1108L49.2999 71.1165C50.2713 71.1193 51.2745 71.76 51.4079 72.731C51.5093 73.4762 51.0135 74.1987 50.2974 74.4979C50.251 74.5177 50.077 74.5713 50.0567 74.5996C50.019 74.6504 50.0857 74.7294 50.1176 74.7717C50.6163 75.452 51.1353 76.1689 51.6717 76.9225H50.7845L49.4536 74.9608C49.4101 74.8959 49.3579 74.8028 49.2912 74.7633C49.2419 74.735 49.2101 74.7379 49.1579 74.7379H47.7168ZM47.7168 71.7177V74.1649L49.1318 74.1677C49.3695 74.1677 49.5638 74.1367 49.7957 74.0661C50.2046 73.9419 50.4713 73.733 50.596 73.4367C50.6743 73.225 50.7091 73.0274 50.6975 72.8383C50.6772 72.4262 50.4481 72.0705 50.0596 71.8899C49.4971 71.6302 48.3199 71.65 47.7168 71.7177Z" fill="white"/>
<path d="M40.8363 76.9225H39.981L42.5557 71.1108L43.3386 71.1137L45.8785 76.9225H45.0898L44.3505 75.1838L41.5757 75.1613L40.8363 76.9225ZM42.8978 72.0028L41.8163 74.5713L44.0895 74.5685L43.0341 72.0733C43.0196 72.0423 42.9877 71.9463 42.9645 71.9322C42.9297 71.9096 42.9065 71.9802 42.8978 72.0028Z" fill="white"/>
<path d="M33.4017 76.9225H32.6362L32.6478 71.1108H33.3669L35.6981 75.4661C35.7184 75.5028 35.7387 75.531 35.759 75.5451C35.7851 75.5649 35.7996 75.5649 35.8228 75.5451C35.8518 75.5197 35.8837 75.4717 35.9155 75.3955L38.1916 71.1221L38.9223 71.125V76.9254H38.1742V72.7423C38.1742 72.7141 38.1829 72.6153 38.1626 72.604C38.1221 72.5814 38.0844 72.6633 38.0728 72.6858L36.1707 76.2113C36.0808 76.3806 36.0257 76.485 35.7938 76.4766C35.6314 76.4709 35.5531 76.4004 35.4893 76.3016C35.3907 76.1463 35.298 75.9516 35.2081 75.7879L33.538 72.6661C33.5206 72.6322 33.4829 72.5362 33.4394 72.5391C33.3872 72.5419 33.3988 72.5871 33.3988 72.6266V76.9225H33.4017Z" fill="white"/>
<path d="M24.0855 74.7379V76.9225H23.3374V71.1108L25.6686 71.1165C26.637 71.1193 27.6431 71.76 27.7765 72.731C27.878 73.4762 27.3822 74.1987 26.666 74.4979C26.6196 74.5177 26.4456 74.5713 26.4254 74.5996C26.3877 74.6504 26.4543 74.7294 26.4862 74.7717C26.985 75.452 27.504 76.1689 28.0404 76.9225H27.1531L25.8223 74.9608C25.7788 74.8959 25.7266 74.8028 25.6599 74.7633C25.6106 74.735 25.5787 74.7379 25.5265 74.7379H24.0855ZM24.0855 71.7177V74.1649L25.5004 74.1677C25.7382 74.1677 25.9324 74.1367 26.1644 74.0661C26.5732 73.9419 26.84 73.733 26.9647 73.4367C27.0429 73.225 27.0777 73.0274 27.0661 72.8383C27.0458 72.4262 26.8168 72.0705 26.4283 71.8899C25.8687 71.6302 24.6886 71.65 24.0855 71.7177Z" fill="white"/>
<path d="M17.959 76.9225H21.9719V76.3326H18.7244V74.2778L21.4123 74.2863V73.6709H18.7244V71.7064L21.8675 71.7149V71.1193L17.959 71.1108V76.9225Z" fill="white"/>
<path d="M12.94 74.7379V76.9225H12.1919V71.1108L14.5231 71.1165C15.4944 71.1193 16.4976 71.76 16.631 72.731C16.7847 73.8459 15.7815 74.5685 14.755 74.7125C14.6304 74.7294 14.5057 74.7379 14.381 74.7379H12.94ZM12.94 71.7177V74.1649L14.3549 74.1677C14.5927 74.1677 14.7869 74.1367 15.0189 74.0661C15.4277 73.9419 15.6945 73.733 15.8191 73.4367C15.8974 73.225 15.9322 73.0274 15.9235 72.8383C15.9032 72.4262 15.6742 72.0705 15.2827 71.8899C14.7202 71.6302 13.5402 71.65 12.94 71.7177Z" fill="white"/>
<path d="M9.63184 71.1108H10.4118L10.4234 76.9169H9.73043L9.72753 76.3834C9.72753 76.3524 9.73623 76.279 9.70433 76.2649C9.65794 76.2451 9.54196 76.358 9.50427 76.3863C9.06934 76.708 8.59963 76.9028 8.09222 76.9734C7.48623 77.058 6.74396 76.8971 6.27134 76.4935C5.45369 75.7907 5.68565 74.3483 5.64795 73.225V71.1137H6.33513L6.31774 74.6024C6.34383 75.2036 6.45981 75.6354 6.66277 75.8979C7.02521 76.3609 7.78197 76.4568 8.32998 76.3298C8.59383 76.2564 8.97656 76.1294 9.27231 75.9431C9.44048 75.8359 9.65794 75.6891 9.69853 75.4943L9.70433 71.475C9.70723 71.331 9.71303 71.2322 9.63184 71.1108Z" fill="white"/>
<path fill-rule="evenodd" clip-rule="evenodd" d="M4.21295 71.6782C4.03898 71.9294 3.9143 72.1382 3.83602 72.3048C3.59246 72.0197 3.17493 71.8052 2.72841 71.6951C2.06153 71.5314 1.1308 71.5653 0.895939 72.2568C0.78286 72.5955 0.875644 72.8834 1.1163 73.0866C1.28447 73.2306 1.73679 73.4225 2.18041 73.5975C2.88209 73.8741 3.83312 74.1451 4.12306 74.8874C4.28254 75.3024 4.24194 75.7624 4.00419 76.1322C3.70554 76.6007 3.20683 76.8435 2.67332 76.9536C2.2442 77.0439 1.80058 76.9959 1.38595 76.8661C0.948131 76.7306 0.397229 76.485 0 76.2677C0.260954 75.881 0.39143 75.6862 0.39143 75.6862C0.974227 76.2084 1.97455 76.5499 2.76321 76.2931C3.17493 76.1576 3.51997 75.8471 3.51997 75.4407C3.52287 75.1358 3.3547 74.91 3.12274 74.7463C2.85019 74.5544 2.40657 74.3596 2.02384 74.2185C1.60921 74.0632 0.936533 73.8713 0.574097 73.5495C0.234858 73.2475 0.10728 72.8269 0.16237 72.3979C0.266752 71.5878 0.956828 71.0911 1.74549 71.012C2.05283 70.981 2.38048 71.012 2.69652 71.0826C3.25612 71.2152 3.69974 71.4495 4.21295 71.6782Z" fill="white"/>
</svg>
