<svg width="891" height="149" viewBox="0 0 891 149" fill="none" xmlns="http://www.w3.org/2000/svg">
<path d="M890.614 62.9776L831.305 0.43457H59.656L0.347082 62.9776C0.178398 63.1555 0.0655317 63.3789 0.0224491 63.6203C-0.0206335 63.8617 0.00795853 64.1105 0.104687 64.3358C0.201416 64.5611 0.362036 64.7531 0.566672 64.888C0.771308 65.0229 1.01098 65.0948 1.25603 65.0948H34.9599L88.101 9.05593H802.86L856.001 65.0948H889.705C889.95 65.0948 890.19 65.0229 890.394 64.888C890.599 64.7531 890.759 64.5611 890.856 64.3358C890.953 64.1105 890.982 63.8617 890.938 63.6203C890.895 63.3789 890.783 63.1555 890.614 62.9776Z" fill="white" fill-opacity="0.1"/>
<path d="M890.614 85.8916L831.305 148.435H59.656L0.347073 85.8916C0.178391 85.7137 0.0655279 85.4903 0.0224474 85.2489C-0.0206331 85.0075 0.00796021 84.7587 0.104689 84.5334C0.201418 84.3081 0.362038 84.1161 0.566673 83.9812C0.771308 83.8463 1.01098 83.7744 1.25602 83.7744H34.9599L88.1009 139.813H802.86L856.001 83.7744H889.705C889.95 83.7744 890.189 83.8463 890.394 83.9812C890.599 84.1161 890.759 84.3081 890.856 84.5334C890.953 84.7587 890.982 85.0074 890.938 85.2488C890.895 85.4902 890.782 85.7137 890.614 85.8916Z" fill="white" fill-opacity="0.1"/>
<path d="M673.785 55.0362H772.142C772.523 55.0362 772.888 54.8848 773.157 54.6154C773.427 54.3459 773.578 53.9804 773.578 53.5993V48.5702C773.578 48.1891 773.427 47.8236 773.157 47.5542C772.888 47.2847 772.523 47.1333 772.142 47.1333H652.246C645.011 47.1333 638.072 50.0096 632.955 55.1296C627.839 60.2495 624.965 67.1936 624.965 74.4342C624.965 81.6749 627.839 88.619 632.955 93.739C638.072 98.8589 645.011 101.735 652.246 101.735H772.142C772.523 101.735 772.888 101.584 773.157 101.314C773.427 101.045 773.578 100.679 773.578 100.298V95.2692C773.578 94.8881 773.427 94.5227 773.157 94.2532C772.888 93.9837 772.523 93.8323 772.142 93.8323H673.785C668.644 93.8323 663.713 91.7886 660.078 88.1508C656.443 84.5129 654.4 79.579 654.4 74.4343C654.4 71.8869 654.902 69.3644 655.876 67.0109C656.85 64.6575 658.278 62.519 660.078 60.7178C661.878 58.9165 664.015 57.4876 666.366 56.5128C668.718 55.538 671.239 55.0362 673.785 55.0362Z" fill="white" fill-opacity="0.1"/>
<path d="M510.81 47.1333H487.841C487.046 47.1333 486.402 47.7778 486.402 48.5728V100.296C486.402 101.091 487.046 101.735 487.841 101.735H510.81C511.604 101.735 512.248 101.091 512.248 100.296V48.5728C512.248 47.7778 511.604 47.1333 510.81 47.1333Z" fill="white" fill-opacity="0.1"/>
<path d="M579.014 47.1333H556.045C555.251 47.1333 554.607 47.7778 554.607 48.5728V100.296C554.607 101.091 555.251 101.735 556.045 101.735H579.014C579.809 101.735 580.453 101.091 580.453 100.296V48.5728C580.453 47.7778 579.809 47.1333 579.014 47.1333Z" fill="white" fill-opacity="0.1"/>
<path d="M440.999 99.283L407.303 83.7741H415.327C420.182 83.7741 424.839 81.8439 428.272 78.4082C431.706 74.9724 433.634 70.3126 433.634 65.4537C433.634 63.0478 433.161 60.6655 432.241 58.4427C431.321 56.22 429.972 54.2004 428.272 52.4992C426.572 50.798 424.554 49.4485 422.333 48.5278C420.112 47.6072 417.731 47.1333 415.327 47.1333H291.481C291.293 47.1333 291.106 47.1704 290.932 47.2426C290.758 47.3147 290.6 47.4205 290.467 47.5538C290.334 47.6871 290.228 47.8453 290.156 48.0195C290.084 48.1937 290.047 48.3804 290.047 48.5689V53.6006C290.047 53.7892 290.084 53.9758 290.156 54.15C290.228 54.3242 290.334 54.4824 290.467 54.6157C290.6 54.7491 290.758 54.8548 290.932 54.9269C291.106 54.9991 291.293 55.0362 291.481 55.0362H395.649C398.359 55.0077 400.978 56.0193 402.967 57.8631C404.955 59.707 406.163 62.243 406.341 64.9501C406.409 66.3589 406.19 67.7668 405.699 69.0886C405.207 70.4104 404.452 71.6185 403.48 72.6397C402.507 73.6608 401.338 74.4738 400.042 75.0292C398.747 75.5847 397.352 75.8711 395.943 75.8712H291.481C291.293 75.8712 291.106 75.9083 290.932 75.9804C290.758 76.0526 290.6 76.1583 290.467 76.2916C290.334 76.4249 290.228 76.5832 290.156 76.7574C290.084 76.9315 290.047 77.1182 290.047 77.3067V82.3385C290.047 82.527 290.084 82.7137 290.156 82.8879C290.228 83.062 290.334 83.2203 290.467 83.3536C290.6 83.4869 290.758 83.5927 290.932 83.6648C291.106 83.7369 291.293 83.7741 291.481 83.7741H361.227L398.82 101.077C399.762 101.511 400.787 101.735 401.824 101.735H440.462C440.755 101.735 441.039 101.635 441.267 101.451C441.495 101.268 441.654 101.011 441.717 100.725C441.779 100.439 441.742 100.14 441.612 99.8775C441.481 99.6152 441.265 99.4055 440.999 99.283Z" fill="white" fill-opacity="0.1"/>
<path d="M263.854 99.6181L215.144 48.2526C214.809 47.899 214.405 47.6174 213.958 47.425C213.51 47.2325 213.028 47.1333 212.541 47.1333H139.247C138.76 47.1333 138.278 47.2325 137.83 47.425C137.383 47.6174 136.979 47.899 136.644 48.2526L87.9344 99.6181C87.7658 99.796 87.6529 100.019 87.6098 100.261C87.5668 100.502 87.5954 100.751 87.6921 100.976C87.7888 101.202 87.9494 101.394 88.1541 101.528C88.3587 101.663 88.5984 101.735 88.8434 101.735H115.1C115.865 101.735 116.622 101.579 117.325 101.277C118.028 100.975 118.662 100.533 119.188 99.9777L160.743 56.1572C161.079 55.8031 161.483 55.521 161.931 55.3283C162.38 55.1356 162.862 55.0362 163.35 55.0362H188.438C188.926 55.0362 189.409 55.1356 189.857 55.3283C190.305 55.521 190.709 55.8031 191.045 56.1572L232.6 99.9777C233.126 100.533 233.76 100.975 234.463 101.277C235.166 101.579 235.923 101.735 236.688 101.735H262.945C263.19 101.735 263.429 101.663 263.634 101.528C263.839 101.394 263.999 101.202 264.096 100.976C264.193 100.751 264.221 100.502 264.178 100.261C264.135 100.019 264.022 99.7959 263.854 99.6181Z" fill="white" fill-opacity="0.1"/>
</svg>
