<svg width="603" height="302" viewBox="0 0 603 302" fill="none" xmlns="http://www.w3.org/2000/svg">
<path d="M318.302 114.528V142.937H225.892L254.829 114.528H318.302ZM318.302 0.435059H216.558V142.021L245.494 113.612V28.8439H318.302V0.435059Z" fill="white" fill-opacity="0.1"/>
<path d="M386.442 0.435059H357.506V114.528L325.302 142.937H386.442V0.435059Z" fill="white" fill-opacity="0.1"/>
<path d="M35.5677 289.105L15.0895 254.282H0L28.0227 301.935H603V289.105H35.5677Z" fill="white" fill-opacity="0.1"/>
<path d="M567.432 184.176L587.911 219H603L574.977 171.347H0V184.176H567.432Z" fill="white" fill-opacity="0.1"/>
<path d="M133.318 206.628V230.57H115.116V206.628H102.981V266.424H115.116V242.483H133.318V266.424H145.452V206.628H133.318Z" fill="white" fill-opacity="0.1"/>
<path d="M384.669 206.628H372.535V266.424H384.669V206.628Z" fill="white" fill-opacity="0.1"/>
<path d="M345.209 206.628V254.511L331.674 266.424H357.344V206.628H345.209Z" fill="white" fill-opacity="0.1"/>
<path d="M248.715 206.628V242.579L230.514 206.738H230.513V206.628H218.378V266.424H230.513V230.449L248.715 266.292V266.424H260.849V206.628H248.715Z" fill="white" fill-opacity="0.1"/>
<path d="M487.907 206.628V242.579L469.706 206.738H469.705V206.628H457.57V266.424H469.705V230.449L487.907 266.292V266.424H500.042V206.628H487.907Z" fill="white" fill-opacity="0.1"/>
<path d="M160.645 206.628V242.483L172.779 230.57V218.542H190.981V230.57H176.98L160.645 246.607V266.424H172.779V242.483H190.981V266.424H203.116V206.628H160.645Z" fill="white" fill-opacity="0.1"/>
<path d="M399.884 206.628V242.483L412.019 230.57V218.542H430.221V230.57H416.219L399.884 246.607V266.424H412.019V242.483H430.221V266.424H442.356V206.628H399.884Z" fill="white" fill-opacity="0.1"/>
<path d="M87.7433 218.542H57.4066V254.053L45.272 265.966V206.628H87.7433V218.542ZM61.1404 254.511L49.0057 266.424H87.7433V254.511H61.1404Z" fill="white" fill-opacity="0.1"/>
<path d="M318.536 218.542H288.199V254.053L276.064 265.966V206.628H318.536V218.542ZM300.334 230.57V242.483H306.401V254.511H291.933L279.798 266.424H318.536V230.57H300.334Z" fill="white" fill-opacity="0.1"/>
<path d="M557.775 218.542H527.438V254.053L515.304 265.966V206.628H557.775V218.542ZM539.573 230.57V242.483H545.64V254.511H531.172L519.037 266.424H557.775V230.57H539.573Z" fill="white" fill-opacity="0.1"/>
</svg>
