<svg width="455" height="653" viewBox="0 0 455 653" fill="none" xmlns="http://www.w3.org/2000/svg">
<path fill-rule="evenodd" clip-rule="evenodd" d="M0 134.95H50.1672L227.228 391.65L249.15 359.742L178.009 260.222C151.872 226.057 118.884 177.528 110.031 134.847C104.023 105.812 109.187 74.314 125.207 49.1774C143.546 20.3474 172.002 3.00828 208.152 0.545922C244.091 -1.91643 273.706 7.93298 300.055 35.3267C301.53 36.7631 302.9 37.2761 304.481 36.7631C306.167 36.1475 309.645 32.3514 311.226 30.915C323.241 20.2448 335.994 13.8837 349.695 11.8317C349.8 15.6279 349.906 17.4746 349.906 17.4746C320.396 39.4306 326.192 64.4646 325.981 95.757C324.717 116.482 317.339 133 303.849 145.312C292.045 156.905 277.922 163.985 261.375 166.55C261.375 161.83 261.375 159.47 261.375 159.47C287.934 144.491 293.415 115.969 284.667 89.0881C274.339 57.3853 240.086 37.5839 204.252 45.6891C183.384 50.4086 165.257 64.4646 157.668 85.292C143.229 124.895 172.634 174.347 195.294 206.768L276.341 320.652L405.132 134.642H454.14L454.35 479.679L403.129 480.295V210.667L252.206 427.662C263.483 442.949 273.706 459.365 282.665 477.012C296.577 504.303 290.464 541.443 264.959 560.321C237.029 581.046 194.451 574.788 175.058 545.855C158.933 521.847 162.833 497.326 174.11 472.908C178.642 463.161 184.438 453.106 191.605 442.847C209.206 467.983 218.059 480.603 218.059 480.603C210.049 492.401 200.353 513.024 211.735 525.335C216.583 530.671 224.277 533.03 231.865 531.286C246.093 528.003 249.466 515.178 247.885 502.764C246.515 491.991 229.968 469.625 223.012 458.954L51.2211 210.77L50.5888 478.243H0V134.95Z" fill="white" fill-opacity="0.1"/>
<path fill-rule="evenodd" clip-rule="evenodd" d="M284.141 411.966L311.649 372.568C320.818 387.445 335.468 409.606 347.483 431.152C363.924 460.598 373.831 488.812 372.145 518.976C369.615 563.401 345.164 603.209 308.593 627.935C264.96 657.278 214.793 659.228 171.792 640.657C144.812 628.961 120.571 609.262 102.443 583.1C101.811 582.176 100.757 580.022 99.5979 580.022C98.1224 580.022 97.49 581.356 96.7523 582.382C87.7938 595.104 75.3574 602.799 59.3376 605.364C56.8082 605.774 51.117 607.621 50.59 603.927C50.1684 601.362 54.7003 599.105 56.7028 597.669C85.5806 576.328 81.5756 552.526 84.2105 524.824C85.159 515.488 86.0022 506.562 90.5341 500.714C97.1738 492.3 113.404 490.454 120.36 499.585C123.417 503.586 125.946 512.923 127.632 520.72C129.213 528.415 130.9 535.597 133.008 542.368C146.603 585.357 194.979 612.956 239.771 607.929C282.561 603.209 309.963 576.123 322.821 538.675C330.409 516.411 327.353 494.045 318.71 473.115C310.068 453.108 295.208 430.844 284.141 411.966Z" fill="white" fill-opacity="0.1"/>
</svg>
