<svg width="72" height="72" viewBox="0 0 72 72" fill="none" xmlns="http://www.w3.org/2000/svg">
<rect width="72" height="72" fill="white"/>
<path fill-rule="evenodd" clip-rule="evenodd" d="M12 16.0447H17.2999L36.0056 42.7964L38.3215 39.4711L30.8058 29.0997C28.0445 25.5393 24.5595 20.4819 23.6242 16.034C22.9896 13.0081 23.5351 9.72561 25.2276 7.10603C27.1649 4.10154 30.1712 2.29457 33.9903 2.03796C37.7871 1.78135 40.9158 2.8078 43.6994 5.6626C43.8553 5.81229 44 5.86575 44.167 5.81228C44.3452 5.74813 44.7126 5.35252 44.8796 5.20283C46.1489 4.09085 47.4962 3.42794 48.9436 3.2141C48.9548 3.60971 48.9659 3.80216 48.9659 3.80216C45.8483 6.09028 46.4607 8.69916 46.4384 11.9603C46.3048 14.1201 45.5254 15.8415 44.1002 17.1246C42.8532 18.3328 41.3612 19.0705 39.6131 19.3378C39.6131 18.846 39.6131 18.6001 39.6131 18.6001C42.4189 17.039 42.9979 14.0666 42.0738 11.2653C40.9826 7.9614 37.364 5.89782 33.5783 6.7425C31.3737 7.23434 29.4586 8.69916 28.6569 10.8697C27.1315 14.9968 30.238 20.1504 32.6319 23.5291L41.1942 35.3974L54.8003 16.0126H59.9777L60 51.9702L54.5887 52.0344V23.9354L38.6444 46.5493C39.8358 48.1424 40.9158 49.8532 41.8622 51.6922C43.3319 54.5363 42.6862 58.4069 39.9917 60.3742C37.0411 62.534 32.5428 61.8818 30.4941 58.8666C28.7905 56.3647 29.2025 53.8093 30.3939 51.2645C30.8727 50.2488 31.485 49.201 32.2422 48.1317C34.1016 50.7513 35.0369 52.0665 35.0369 52.0665C34.1907 53.296 33.1663 55.4452 34.3688 56.7282C34.881 57.2842 35.6938 57.5301 36.4955 57.3484C37.9986 57.0062 38.3549 55.6697 38.1879 54.3759C38.0431 53.2533 36.2951 50.9224 35.5602 49.8104L17.4113 23.9461L17.3445 51.8205H12V16.0447Z" fill="black"/>
<path fill-rule="evenodd" clip-rule="evenodd" d="M42.0183 44.9135L44.9244 40.8077C45.8931 42.358 47.4407 44.6675 48.7101 46.9129C50.447 49.9815 51.4936 52.9219 51.3155 56.0654C51.0483 60.695 48.4651 64.8436 44.6015 67.4204C39.9919 70.4783 34.692 70.6815 30.1492 68.7462C27.2988 67.5273 24.7379 65.4744 22.8228 62.7479C22.756 62.6517 22.6446 62.4272 22.5222 62.4272C22.3663 62.4272 22.2995 62.5662 22.2215 62.6731C21.2751 63.9989 19.9613 64.8008 18.2689 65.0681C18.0016 65.1109 17.4004 65.3034 17.3447 64.9184C17.3002 64.6511 17.7789 64.4159 17.9905 64.2662C21.0413 62.0423 20.6182 59.5617 20.8965 56.6748C20.9968 55.7018 21.0858 54.7716 21.5646 54.1622C22.2661 53.2854 23.9808 53.0929 24.7156 54.0445C25.0385 54.4615 25.3057 55.4345 25.4839 56.2471C25.6509 57.049 25.829 57.7975 26.0517 58.5032C27.4881 62.9832 32.5987 65.8593 37.3308 65.3354C41.8513 64.8436 44.7462 62.0209 46.1046 58.1182C46.9063 55.798 46.5834 53.4672 45.6704 51.286C44.7574 49.201 43.1874 46.8808 42.0183 44.9135Z" fill="black"/>
</svg>
