<svg width="120" height="120" viewBox="0 0 120 120" fill="none" xmlns="http://www.w3.org/2000/svg">
<rect width="120" height="120" fill="white"/>
<path fill-rule="evenodd" clip-rule="evenodd" d="M19 25.9585H28.054L60.0095 71.5938L63.9659 65.9213L51.1267 48.229C46.4094 42.1552 40.4558 33.5279 38.858 25.9403C37.7738 20.7785 38.7059 15.179 41.5971 10.7103C44.9068 5.58499 50.0425 2.50251 56.5667 2.06476C63.0529 1.62701 68.3978 3.378 73.1531 8.24796C73.4194 8.50331 73.6667 8.59451 73.952 8.50331C74.2563 8.39387 74.884 7.71901 75.1693 7.46366C77.3377 5.56675 79.6393 4.4359 82.112 4.07111C82.1311 4.74597 82.1501 5.07428 82.1501 5.07428C76.8242 8.97754 77.8703 13.428 77.8323 18.991C77.604 22.6754 76.2726 25.612 73.8379 27.8007C71.7075 29.8618 69.1587 31.1203 66.1724 31.5763C66.1724 30.7373 66.1724 30.3178 66.1724 30.3178C70.9657 27.6548 71.9548 22.5842 70.376 17.8055C68.5119 12.1695 62.3301 8.64923 55.8629 10.0901C52.0967 10.9292 48.8251 13.428 47.4556 17.1306C44.8497 24.1711 50.1566 32.9625 54.2461 38.7262L68.8734 58.9721L92.1171 25.9038H100.962L101 87.2433L91.7557 87.3527V39.4193L64.5175 77.9959C66.5528 80.7136 68.3978 83.6319 70.0146 86.7691C72.5254 91.6208 71.4222 98.2235 66.8191 101.58C61.7785 105.264 54.0939 104.151 50.5941 99.0078C47.6838 94.7398 48.3876 90.3805 50.4229 86.0395C51.2408 84.3068 52.2869 82.5193 53.5804 80.6953C56.7569 85.164 58.3547 87.4075 58.3547 87.4075C56.9091 89.505 55.1591 93.1712 57.2134 95.3599C58.0884 96.3083 59.4769 96.7279 60.8464 96.4178C63.4143 95.8341 64.023 93.5542 63.7377 91.3472C63.4904 89.4321 60.5041 85.4558 59.2487 83.5589L28.2443 39.4375L28.1301 86.988H19V25.9585Z" fill="black"/>
<path fill-rule="evenodd" clip-rule="evenodd" d="M70.2817 75.2053L75.2462 68.2014C76.9011 70.8461 79.545 74.7858 81.7134 78.6161C84.6807 83.8509 86.4687 88.8667 86.1643 94.2291C85.7078 102.127 81.2949 109.204 74.6946 113.6C66.8199 118.816 57.7658 119.163 50.0052 115.861C45.1358 113.782 40.761 110.28 37.4893 105.629C37.3752 105.465 37.185 105.082 36.9758 105.082C36.7095 105.082 36.5953 105.319 36.4622 105.501C34.8454 107.763 32.6009 109.131 29.7097 109.587C29.2532 109.66 28.226 109.988 28.1309 109.331C28.0549 108.875 28.8728 108.474 29.2342 108.219C34.4459 104.425 33.7231 100.193 34.1987 95.2688C34.3699 93.609 34.522 92.0222 35.3399 90.9825C36.5383 89.4869 39.4675 89.1586 40.7229 90.7819C41.2745 91.4932 41.731 93.153 42.0354 94.5392C42.3207 95.9072 42.625 97.1839 43.0054 98.3878C45.4592 106.03 54.1899 110.937 62.2738 110.043C69.9964 109.204 74.9419 104.389 77.2625 97.7311C78.632 93.7732 78.0804 89.7969 76.5206 86.0761C74.9609 82.5194 72.2789 78.5614 70.2817 75.2053Z" fill="black"/>
</svg>
