<svg width="152" height="152" viewBox="0 0 152 152" fill="none" xmlns="http://www.w3.org/2000/svg">
<rect width="152" height="152" fill="white"/>
<path fill-rule="evenodd" clip-rule="evenodd" d="M24 32.5678H35.3728L75.5119 90.7921L80.4816 83.5548L64.3542 60.9818C58.4289 53.2325 50.9506 42.2253 48.9436 32.5445C47.5818 25.9588 48.7525 18.8146 52.3841 13.1131C56.5414 6.57395 62.9924 2.64113 71.1874 2.08263C79.3347 1.52412 86.0485 3.75814 92.0216 9.97153C92.3561 10.2973 92.6667 10.4137 93.025 10.2973C93.4073 10.1577 94.1958 9.29667 94.5542 8.97088C97.2779 6.55068 100.169 5.10787 103.275 4.64245C103.299 5.50348 103.323 5.92236 103.323 5.92236C96.6328 10.9024 97.9469 16.5805 97.8991 23.6782C97.6124 28.379 95.9399 32.1256 92.8817 34.9182C90.2058 37.5478 87.0042 39.1535 83.2531 39.7353C83.2531 38.6648 83.2531 38.1296 83.2531 38.1296C89.274 34.732 90.5163 28.2626 88.5333 22.1656C86.1918 14.9748 78.4268 10.4835 70.3034 12.3219C65.5727 13.3924 61.4632 16.5805 59.743 21.3046C56.4697 30.2872 63.1357 41.5039 68.2726 48.8576L86.6458 74.6885L115.842 32.498H126.952L127 110.759L115.388 110.898V49.7419L81.1744 98.9603C83.7309 102.428 86.0485 106.151 88.0793 110.154C91.2331 116.344 89.8474 124.768 84.0654 129.05C77.7339 133.751 68.0814 132.331 63.6852 125.769C60.0297 120.323 60.9137 114.761 63.4702 109.223C64.4976 107.012 65.8116 104.731 67.4363 102.404C71.4264 108.106 73.4333 110.968 73.4333 110.968C71.6175 113.644 69.4194 118.322 71.9998 121.114C73.0988 122.324 74.843 122.86 76.5632 122.464C79.7887 121.719 80.5532 118.811 80.1949 115.995C79.8843 113.551 76.1331 108.478 74.5563 106.058L35.6117 49.7651L35.4683 110.433H24V32.5678Z" fill="black"/>
<path fill-rule="evenodd" clip-rule="evenodd" d="M88.4146 95.3999L94.6505 86.4638C96.7292 89.8381 100.05 94.8647 102.774 99.7516C106.501 106.43 108.747 112.83 108.365 119.672C107.791 129.748 102.248 138.777 93.9577 144.386C84.0662 151.041 72.6934 151.483 62.9454 147.271C56.8289 144.618 51.3337 140.15 47.2242 134.216C47.0808 134.007 46.8419 133.518 46.5791 133.518C46.2446 133.518 46.1012 133.821 45.934 134.053C43.9031 136.939 41.0838 138.684 37.4522 139.266C36.8788 139.359 35.5886 139.778 35.4691 138.94C35.3736 138.358 36.4009 137.846 36.8549 137.521C43.4014 132.68 42.4935 127.281 43.0908 120.998C43.3058 118.88 43.497 116.856 44.5243 115.529C46.0296 113.621 49.709 113.202 51.2859 115.273C51.9788 116.181 52.5522 118.299 52.9344 120.067C53.2928 121.813 53.6751 123.442 54.153 124.977C57.2351 134.728 68.2017 140.988 78.3559 139.848C88.0562 138.777 94.2683 132.634 97.1831 124.14C98.9034 119.09 98.2105 114.017 96.2513 109.269C94.2921 104.732 90.9233 99.6818 88.4146 95.3999Z" fill="black"/>
</svg>
