<svg width="144" height="144" viewBox="0 0 144 144" fill="none" xmlns="http://www.w3.org/2000/svg">
<rect width="144" height="144" fill="white"/>
<path fill-rule="evenodd" clip-rule="evenodd" d="M23 30.9155H33.8207L72.0114 85.9925L76.7397 79.1464L61.3953 57.7936C55.7576 50.4632 48.6423 40.051 46.7328 30.8935C45.437 24.6637 46.5509 17.9057 50.0063 12.5124C53.9617 6.32671 60.0995 2.60648 67.8968 2.07816C75.6486 1.54984 82.0364 3.66311 87.7196 9.54064C88.0378 9.84882 88.3333 9.95889 88.6743 9.84882C89.038 9.71674 89.7882 8.90226 90.1292 8.59407C92.7207 6.3047 95.4714 4.93988 98.4266 4.49961C98.4493 5.3141 98.4721 5.71034 98.4721 5.71034C92.1069 10.4212 93.3572 15.7924 93.3118 22.5064C93.039 26.9531 91.4477 30.4972 88.5379 33.1388C85.9919 35.6263 82.9457 37.1452 79.3767 37.6955C79.3767 36.6829 79.3767 36.1766 79.3767 36.1766C85.1053 32.9627 86.2874 26.843 84.4006 21.0756C82.1728 14.2735 74.7847 10.0249 67.0557 11.764C62.5546 12.7766 58.6446 15.7924 57.0079 20.2611C53.8935 28.7582 60.2359 39.3685 65.1234 46.3247L82.6047 70.7594L110.384 30.8494H120.955L121 104.88L109.952 105.012V47.1612L77.399 93.7192C79.8314 96.9991 82.0364 100.521 83.9687 104.308C86.9694 110.163 85.6509 118.132 80.1496 122.182C74.1255 126.629 64.9415 125.286 60.7588 119.078C57.2807 113.927 58.1218 108.666 60.5542 103.427C61.5317 101.336 62.782 99.1784 64.3278 96.9771C68.1241 102.37 70.0336 105.078 70.0336 105.078C68.306 107.61 66.2146 112.034 68.6697 114.676C69.7154 115.82 71.3749 116.327 73.0116 115.952C76.0805 115.248 76.8079 112.496 76.4669 109.833C76.1714 107.521 72.6024 102.723 71.1021 100.433L34.048 47.1832L33.9116 104.572H23V30.9155Z" fill="black"/>
<path fill-rule="evenodd" clip-rule="evenodd" d="M84.2875 90.3513L90.2207 81.8982C92.1984 85.0901 95.3583 89.845 97.9498 94.4677C101.496 100.786 103.633 106.839 103.269 113.311C102.724 122.843 97.4497 131.384 89.5615 136.689C80.1502 142.985 69.3295 143.403 60.0546 139.419C54.2351 136.909 49.0066 132.683 45.0966 127.069C44.9602 126.871 44.7329 126.409 44.4828 126.409C44.1646 126.409 44.0282 126.695 43.869 126.915C41.9368 129.645 39.2543 131.296 35.799 131.846C35.2534 131.934 34.0258 132.33 33.9122 131.538C33.8213 130.988 34.7988 130.503 35.2307 130.195C41.4594 125.616 40.5956 120.509 41.1639 114.566C41.3685 112.563 41.5503 110.647 42.5278 109.393C43.96 107.588 47.4608 107.191 48.9611 109.151C49.6204 110.009 50.166 112.012 50.5297 113.685C50.8707 115.336 51.2344 116.877 51.689 118.33C54.6215 127.554 65.0558 133.475 74.7171 132.397C83.9465 131.384 89.857 125.572 92.6304 117.538C94.2671 112.761 93.6079 107.962 91.7438 103.471C89.8797 99.1786 86.6744 94.4017 84.2875 90.3513Z" fill="black"/>
</svg>
