<svg width="76" height="76" viewBox="0 0 76 76" fill="none" xmlns="http://www.w3.org/2000/svg">
<rect width="76" height="76" fill="white"/>
<path fill-rule="evenodd" clip-rule="evenodd" d="M11 16.8708H16.5208L36.0058 45.1962L38.4182 41.6753L30.5894 30.6938C27.7131 26.9239 24.0828 21.5691 23.1086 16.8595C22.4475 13.6556 23.0158 10.1801 24.7787 7.40639C26.7968 4.22516 29.9283 2.3119 33.9065 2.0402C37.8615 1.76849 41.1206 2.85531 44.0202 5.87804C44.1826 6.03654 44.3333 6.09314 44.5073 6.03654C44.6929 5.96861 45.0756 5.54973 45.2496 5.39124C46.5718 4.21384 47.9752 3.51194 49.483 3.28552C49.4945 3.7044 49.5061 3.90817 49.5061 3.90817C46.2586 6.33089 46.8965 9.09323 46.8733 12.5462C46.7342 14.833 45.9223 16.6557 44.4377 18.0142C43.1387 19.2935 41.5846 20.0747 39.7636 20.3577C39.7636 19.8369 39.7636 19.5766 39.7636 19.5766C42.6864 17.9237 43.2895 14.7764 42.3268 11.8103C41.1902 8.31207 37.4208 6.12711 33.4774 7.02147C31.1809 7.54224 29.186 9.09323 28.351 11.3914C26.762 15.7613 29.9979 21.2181 32.4915 24.7956L41.4106 37.362L55.5836 16.8369H60.9768L61 54.9096L55.3633 54.9776V25.2258L38.7546 49.1699C39.9956 50.8567 41.1206 52.6681 42.1065 54.6153C43.6374 57.6267 42.9647 61.7249 40.158 63.808C37.0844 66.0949 32.3987 65.4043 30.2647 62.2117C28.4901 59.5626 28.9193 56.8569 30.1603 54.1625C30.659 53.087 31.2969 51.9775 32.0856 50.8454C34.0225 53.619 34.9968 55.0115 34.9968 55.0115C34.1153 56.3135 33.0483 58.589 34.3009 59.9475C34.8344 60.5362 35.6811 60.7966 36.5161 60.6041C38.0819 60.2419 38.453 58.8267 38.2791 57.4569C38.1283 56.2682 36.3074 53.8002 35.5419 52.6228L16.6367 25.2371L16.5672 54.7511H11V16.8708Z" fill="black"/>
<path fill-rule="evenodd" clip-rule="evenodd" d="M42.2692 47.4378L45.2963 43.0905C46.3054 44.7321 47.9175 47.1774 49.2397 49.5549C51.049 52.804 52.1393 55.9173 51.9537 59.2457C51.6754 64.1477 48.9846 68.5403 44.96 71.2687C40.1583 74.5065 34.6375 74.7216 29.9055 72.6725C26.9363 71.3819 24.2687 69.2083 22.2738 66.3214C22.2042 66.2195 22.0882 65.9817 21.9607 65.9817C21.7983 65.9817 21.7287 66.1289 21.6475 66.2421C20.6617 67.6459 19.2931 68.495 17.5301 68.778C17.2518 68.8233 16.6255 69.0271 16.5675 68.6196C16.5211 68.3365 17.0198 68.0875 17.2402 67.929C20.4181 65.5742 19.9774 62.9477 20.2673 59.891C20.3717 58.8608 20.4645 57.8758 20.9632 57.2305C21.6939 56.3022 23.48 56.0984 24.2455 57.106C24.5819 57.5475 24.8602 58.5778 25.0458 59.4382C25.2198 60.2872 25.4053 61.0797 25.6373 61.8269C27.1335 66.5704 32.4571 69.6158 37.3863 69.0611C42.0952 68.5403 45.1107 65.5515 46.5257 61.4193C47.3608 58.9627 47.0245 56.4947 46.0734 54.1852C45.1223 51.9776 43.487 49.5209 42.2692 47.4378Z" fill="black"/>
</svg>
