<svg width="114" height="114" viewBox="0 0 114 114" fill="none" xmlns="http://www.w3.org/2000/svg">
<rect width="114" height="114" fill="white"/>
<path fill-rule="evenodd" clip-rule="evenodd" d="M19 24.7193H27.3916L57.0088 67.9941L60.6757 62.615L48.7759 45.8378C44.4039 40.0782 38.8859 31.8972 37.405 24.702C36.4001 19.8072 37.264 14.4973 39.9436 10.2598C43.0111 5.39956 47.7711 2.47652 53.8179 2.06141C59.8295 1.6463 64.7833 3.30673 69.1907 7.92479C69.4375 8.16693 69.6667 8.25341 69.9311 8.16693C70.2132 8.06315 70.7949 7.4232 71.0594 7.18106C73.0691 5.38226 75.2023 4.3099 77.4941 3.96398C77.5117 4.60394 77.5293 4.91527 77.5293 4.91527C72.5931 8.61663 73.5627 12.8369 73.5275 18.1122C73.3159 21.606 72.0819 24.3907 69.8253 26.4662C67.8508 28.4207 65.4885 29.6141 62.7207 30.0465C62.7207 29.2509 62.7207 28.8531 62.7207 28.8531C67.1633 26.3278 68.08 21.5195 66.6168 16.9879C64.8891 11.6434 59.1596 8.3053 53.1656 9.67169C49.675 10.4673 46.6428 12.8369 45.3735 16.348C42.9582 23.0243 47.8768 31.361 51.6671 36.8266L65.2241 56.0252L86.7671 24.6674H94.9647L95 82.8342L86.4322 82.938V37.4838L61.187 74.0651C63.0733 76.6422 64.7833 79.4096 66.2818 82.3845C68.6089 86.9852 67.5864 93.2464 63.3201 96.4289C58.6483 99.9227 51.5261 98.8677 48.2823 93.9902C45.585 89.9429 46.2373 85.8091 48.1236 81.6926C48.8817 80.0495 49.8513 78.3545 51.0501 76.6249C53.9942 80.8624 55.4751 82.9898 55.4751 82.9898C54.1352 84.9789 52.5133 88.4554 54.4173 90.5309C55.2283 91.4303 56.5152 91.8281 57.7845 91.5341C60.1645 90.9806 60.7286 88.8186 60.4642 86.7258C60.235 84.9097 57.4672 81.1392 56.3036 79.3404L27.5678 37.5011L27.4621 82.592H19V24.7193Z" fill="black"/>
<path fill-rule="evenodd" clip-rule="evenodd" d="M66.5292 71.4189L71.1304 64.7772C72.6642 67.2851 75.1147 71.0211 77.1244 74.6532C79.8746 79.6172 81.5317 84.3736 81.2497 89.4587C80.8266 96.9479 76.7366 103.659 70.6192 107.827C63.3207 112.774 54.9291 113.102 47.7363 109.972C43.2232 108 39.1685 104.679 36.1362 100.269C36.0305 100.113 35.8542 99.7499 35.6602 99.7499C35.4134 99.7499 35.3077 99.9747 35.1843 100.148C33.6858 102.292 31.6055 103.59 28.9258 104.022C28.5027 104.091 27.5508 104.403 27.4626 103.78C27.3921 103.347 28.1502 102.967 28.4851 102.725C33.3155 99.1272 32.6456 95.1145 33.0864 90.4446C33.245 88.8706 33.3861 87.3659 34.1441 86.38C35.2548 84.9617 37.9697 84.6504 39.1332 86.1897C39.6445 86.8643 40.0676 88.4382 40.3496 89.7527C40.6141 91.0499 40.8962 92.2607 41.2487 93.4022C43.5229 100.649 51.6148 105.302 59.1072 104.454C66.2648 103.659 70.8484 99.0926 72.9991 92.7795C74.2685 89.0263 73.7572 85.2557 72.3116 81.7273C70.866 78.3546 68.3803 74.6013 66.5292 71.4189Z" fill="black"/>
</svg>
