<svg width="60" height="60" viewBox="0 0 60 60" fill="none" xmlns="http://www.w3.org/2000/svg">
<rect width="60" height="60" fill="white"/>
<path fill-rule="evenodd" clip-rule="evenodd" d="M11 13.5662H15.1958L30.0044 35.597L31.8379 32.8586L25.888 24.3174C23.7019 21.3853 20.9429 17.2204 20.2025 13.5574C19.7001 11.0655 20.132 8.36226 21.4718 6.20497C23.0056 3.73068 25.3855 2.24259 28.409 2.03126C31.4148 1.81994 33.8917 2.66524 36.0953 5.01626C36.2187 5.13953 36.3333 5.18356 36.4656 5.13953C36.6066 5.0867 36.8975 4.7609 37.0297 4.63763C38.0346 3.72188 39.1011 3.17595 40.247 2.99985C40.2559 3.32564 40.2647 3.48414 40.2647 3.48414C37.7966 5.36847 38.2814 7.51696 38.2637 10.2026C38.158 11.9812 37.5409 13.3989 36.4127 14.4555C35.4254 15.4505 34.2443 16.0581 32.8604 16.2782C32.8604 15.8732 32.8604 15.6707 32.8604 15.6707C35.0817 14.3851 35.54 11.9372 34.8084 9.63022C33.9446 6.90939 31.0798 5.20997 28.0828 5.90559C26.3375 6.31063 24.8214 7.51696 24.1867 9.30443C22.9791 12.7033 25.4384 16.9474 27.3336 19.7299L34.112 29.5038L44.8836 13.5398H48.9824L49 43.1519L44.7161 43.2048V20.0645L32.0935 38.6877C33.0367 39.9997 33.8917 41.4085 34.6409 42.923C35.8045 45.2652 35.2932 48.4527 33.1601 50.0729C30.8242 51.8516 27.263 51.3144 25.6412 48.8314C24.2925 46.7709 24.6187 44.6665 25.5618 42.5708C25.9408 41.7343 26.4257 40.8714 27.0251 39.9908C28.4971 42.1481 29.2375 43.2312 29.2375 43.2312C28.5676 44.2438 27.7567 46.0137 28.7087 47.0703C29.1141 47.5282 29.7576 47.7307 30.3923 47.581C31.5822 47.2992 31.8643 46.1986 31.7321 45.1331C31.6175 44.2086 30.2336 42.289 29.6518 41.3733L15.2839 20.0733L15.231 43.0287H11V13.5662Z" fill="black"/>
<path fill-rule="evenodd" clip-rule="evenodd" d="M34.7646 37.3405L37.0652 33.9593C37.8321 35.2361 39.0573 37.138 40.0622 38.9871C41.4373 41.5142 42.2659 43.9357 42.1248 46.5244C41.9133 50.3371 39.8683 53.7536 36.8096 55.8756C33.1603 58.394 28.9645 58.5613 25.3682 56.9675C23.1116 55.9637 21.0842 54.2731 19.5681 52.0277C19.5152 51.9485 19.4271 51.7636 19.3301 51.7636C19.2067 51.7636 19.1538 51.878 19.0921 51.9661C18.3429 53.058 17.3027 53.7184 15.9629 53.9385C15.7514 53.9737 15.2754 54.1322 15.2313 53.8152C15.196 53.5951 15.5751 53.4014 15.7426 53.2781C18.1578 51.4466 17.8228 49.4038 18.0432 47.0263C18.1225 46.2251 18.193 45.459 18.5721 44.9571C19.1274 44.2351 20.4848 44.0766 21.0666 44.8602C21.3222 45.2036 21.5338 46.0049 21.6748 46.6741C21.807 47.3345 21.9481 47.9509 22.1244 48.532C23.2615 52.2215 27.3074 54.5901 31.0536 54.1586C34.6324 53.7536 36.9242 51.429 37.9996 48.215C38.6342 46.3043 38.3786 44.3847 37.6558 42.5885C36.933 40.8714 35.6901 38.9607 34.7646 37.3405Z" fill="black"/>
</svg>
