<svg width="64" height="64" viewBox="0 0 64 64" fill="none" xmlns="http://www.w3.org/2000/svg">
<rect width="64" height="64" fill="white"/>
<path fill-rule="evenodd" clip-rule="evenodd" d="M11 14.3923H15.613L31.8943 37.9968L33.9101 35.0627L27.3685 25.9115C24.9651 22.7699 21.9317 18.3076 21.1177 14.3829C20.5653 11.713 21.0401 8.81671 22.5132 6.50532C24.1995 3.8543 26.8161 2.25992 30.1402 2.0335C33.4449 1.80708 36.1682 2.71276 38.591 5.2317C38.7267 5.36378 38.8527 5.41095 38.998 5.36378C39.1531 5.30718 39.4729 4.95811 39.6183 4.82603C40.7231 3.84487 41.8957 3.25995 43.1556 3.07126C43.1653 3.42033 43.175 3.59015 43.175 3.59015C40.4614 5.60907 40.9944 7.91102 40.975 10.7885C40.8587 12.6942 40.1804 14.2131 38.9399 15.3452C37.8545 16.4113 36.5558 17.0622 35.0343 17.2981C35.0343 16.8641 35.0343 16.6471 35.0343 16.6471C37.4765 15.2697 37.9804 12.647 37.1761 10.1752C36.2263 7.26006 33.0767 5.43926 29.7816 6.18456C27.8628 6.61853 26.1959 7.91103 25.4981 9.82618C24.1704 13.4678 26.8743 18.0151 28.9579 20.9963L36.4105 31.4683L48.2532 14.364H52.7596L52.779 46.0914L48.069 46.148V21.3548L34.1912 41.3082C35.2281 42.7139 36.1682 44.2234 36.9919 45.8461C38.2712 48.3556 37.7091 51.7708 35.3638 53.5067C32.7956 55.4124 28.8804 54.8369 27.0972 52.1765C25.6144 49.9688 25.973 47.7141 27.01 45.4687C27.4267 44.5725 27.9597 43.6479 28.6187 42.7045C30.2371 45.0159 31.0512 46.1763 31.0512 46.1763C30.3147 47.2612 29.4231 49.1575 30.4697 50.2896C30.9155 50.7802 31.623 50.9972 32.3208 50.8368C33.6291 50.5349 33.9392 49.3556 33.7938 48.2141C33.6678 47.2235 32.1463 45.1668 31.5067 44.1857L15.7099 21.3642L15.6518 45.9593H11V14.3923Z" fill="black"/>
<path fill-rule="evenodd" clip-rule="evenodd" d="M37.1278 39.8648L39.6572 36.2421C40.5003 37.61 41.8474 39.6478 42.9522 41.629C44.464 44.3366 45.375 46.9311 45.22 49.7047C44.9874 53.7897 42.739 57.4502 39.3761 59.7239C35.364 62.4221 30.7509 62.6013 26.7969 60.8937C24.3159 59.8182 22.0869 58.0068 20.42 55.6011C20.3619 55.5162 20.265 55.3181 20.1584 55.3181C20.0227 55.3181 19.9646 55.4407 19.8967 55.5351C19.073 56.7049 17.9294 57.4125 16.4563 57.6483C16.2237 57.6861 15.7004 57.8559 15.6519 57.5163C15.6132 57.2804 16.0299 57.0729 16.214 56.9408C18.8694 54.9785 18.5012 52.7897 18.7435 50.2425C18.8307 49.384 18.9082 48.5632 19.3249 48.0254C19.9355 47.2518 21.4279 47.082 22.0676 47.9217C22.3486 48.2896 22.5812 49.1481 22.7362 49.8651C22.8816 50.5727 23.0367 51.2331 23.2305 51.8557C24.4807 55.8087 28.929 58.3465 33.0477 57.8842C36.9824 57.4502 39.5021 54.9596 40.6845 51.5161C41.3822 49.4689 41.1012 47.4122 40.3065 45.4876C39.5118 43.6479 38.1453 41.6007 37.1278 39.8648Z" fill="black"/>
</svg>
