<svg width="196" height="196" viewBox="0 0 196 196" fill="none" xmlns="http://www.w3.org/2000/svg">
<rect width="196" height="196" fill="white"/>
<path fill-rule="evenodd" clip-rule="evenodd" d="M31 41.6555H45.7956L98.0155 117.19L104.481 107.801L83.4997 78.5169C75.791 68.4638 66.0619 54.1842 63.4509 41.6253C61.6792 33.0817 63.2023 23.8135 67.9269 16.417C73.3354 7.93377 81.7279 2.83174 92.3895 2.10719C102.989 1.38264 111.723 4.28084 119.494 12.3414C119.929 12.7641 120.333 12.915 120.8 12.7641C121.297 12.583 122.323 11.466 122.789 11.0433C126.332 7.90359 130.093 6.03183 134.134 5.42804C134.165 6.54505 134.196 7.08847 134.196 7.08847C125.493 13.549 127.203 20.9153 127.141 30.1231C126.768 36.2214 124.592 41.0819 120.613 44.7046C117.132 48.1161 112.967 50.1991 108.087 50.9539C108.087 49.5652 108.087 48.8708 108.087 48.8708C115.92 44.4631 117.536 36.0704 114.956 28.1608C111.91 18.8322 101.808 13.0056 91.2394 15.3906C85.0849 16.7793 79.7386 20.9153 77.5006 27.0438C73.2422 38.6969 81.9144 53.2483 88.5973 62.7882L112.5 96.2986L150.484 41.5649H164.938L165 143.092L149.894 143.274V63.9354L105.382 127.786C108.708 132.285 111.723 137.115 114.365 142.307C118.468 150.338 116.666 161.266 109.143 166.821C100.906 172.92 88.3486 171.078 82.6293 162.565C77.8736 155.5 79.0237 148.285 82.3496 141.1C83.6862 138.232 85.3957 135.273 87.5094 132.254C92.7003 139.651 95.3113 143.364 95.3113 143.364C92.949 146.836 90.0893 152.904 93.4463 156.527C94.8761 158.097 97.1452 158.791 99.3832 158.278C103.579 157.312 104.574 153.538 104.108 149.885C103.704 146.715 98.8237 140.134 96.7722 136.994L46.1065 63.9656L45.92 142.67H31V41.6555Z" fill="black"/>
<path fill-rule="evenodd" clip-rule="evenodd" d="M114.801 123.168L122.914 111.575C125.618 115.952 129.939 122.473 133.482 128.813C138.331 137.477 141.253 145.779 140.756 154.655C140.01 167.727 132.798 179.441 122.013 186.717C109.144 195.351 94.3485 195.924 81.6665 190.46C73.7092 187.018 66.56 181.222 61.2137 173.524C61.0272 173.252 60.7164 172.618 60.3744 172.618C59.9393 172.618 59.7528 173.01 59.5352 173.312C56.8931 177.056 53.2253 179.32 48.5006 180.075C47.7546 180.196 46.0761 180.739 45.9207 179.652C45.7964 178.897 47.133 178.233 47.7235 177.811C56.2404 171.531 55.0592 164.527 55.8363 156.376C56.116 153.629 56.3647 151.002 57.7013 149.281C59.6595 146.806 64.4463 146.263 66.4978 148.949C67.3993 150.127 68.1453 152.874 68.6426 155.168C69.1088 157.433 69.6062 159.546 70.2278 161.538C74.2376 174.188 88.5048 182.309 101.715 180.83C114.335 179.441 122.417 171.471 126.209 160.452C128.447 153.9 127.545 147.319 124.997 141.16C122.448 135.274 118.065 128.722 114.801 123.168Z" fill="black"/>
</svg>
