<svg width="96" height="96" viewBox="0 0 96 96" fill="none" xmlns="http://www.w3.org/2000/svg">
<rect width="96" height="96" fill="white"/>
<path fill-rule="evenodd" clip-rule="evenodd" d="M16 21.0016H23.0666L48.0074 57.1951L51.0953 52.6962L41.0745 38.6644C37.3927 33.8472 32.746 27.0049 31.499 20.9871C30.6528 16.8933 31.3802 12.4523 33.6367 8.90816C36.2199 4.84327 40.2283 2.39854 45.3203 2.05136C50.3827 1.70418 54.5544 3.0929 58.2658 6.95528C58.4737 7.1578 58.6667 7.23013 58.8893 7.1578C59.1269 7.071 59.6168 6.53577 59.8395 6.33325C61.5319 4.8288 63.3282 3.93192 65.2582 3.6426C65.273 4.17784 65.2879 4.43822 65.2879 4.43822C61.1311 7.53391 61.9476 11.0636 61.9179 15.4756C61.7397 18.3977 60.7005 20.7267 58.8003 22.4626C57.1376 24.0973 55.1482 25.0954 52.8174 25.4571C52.8174 24.7916 52.8174 24.4589 52.8174 24.4589C56.5586 22.3469 57.3305 18.3254 56.0984 14.5354C54.6435 10.0654 49.8186 7.27353 44.7711 8.41633C41.8316 9.08175 39.2781 11.0636 38.2092 14.0001C36.1754 19.5839 40.3173 26.5565 43.5092 31.1277L54.9255 47.1847L73.067 20.9582H79.9703L80 69.6068L72.785 69.6936V31.6774L51.5259 62.2726C53.1144 64.428 54.5544 66.7425 55.8163 69.2307C57.7759 73.0786 56.9149 78.3152 53.3222 80.9769C49.3881 83.899 43.3904 83.0166 40.6588 78.9372C38.3874 75.5522 38.9367 72.0949 40.5252 68.652C41.1635 67.2778 41.9801 65.8601 42.9896 64.4135C45.4688 67.9577 46.7158 69.737 46.7158 69.737C45.5876 71.4005 44.2218 74.3082 45.8251 76.0441C46.508 76.7963 47.5917 77.129 48.6606 76.8831C50.6648 76.4202 51.1399 74.6119 50.9172 72.8616C50.7242 71.3427 48.3934 68.1891 47.4136 66.6847L23.215 31.6918L23.126 69.4042H16V21.0016Z" fill="black"/>
<path fill-rule="evenodd" clip-rule="evenodd" d="M56.0246 60.0594L59.8993 54.5045C61.1909 56.6021 63.2545 59.7267 64.9469 62.7645C67.2628 66.9162 68.6583 70.8943 68.4208 75.1473C68.0645 81.411 64.6203 87.0237 59.4688 90.51C53.3227 94.6472 46.2561 94.922 40.199 92.3037C36.3985 90.6546 32.984 87.8772 30.4305 84.1884C30.3415 84.0582 30.193 83.7544 30.0297 83.7544C29.8219 83.7544 29.7328 83.9425 29.6289 84.0871C28.367 85.8809 26.6152 86.9658 24.3586 87.3275C24.0023 87.3853 23.2007 87.6457 23.1264 87.125C23.0671 86.7633 23.7054 86.4451 23.9875 86.2425C28.0552 83.2336 27.4911 79.8776 27.8622 75.9718C27.9958 74.6554 28.1146 73.3969 28.753 72.5723C29.6883 71.3861 31.9745 71.1258 32.9543 72.4132C33.3848 72.9774 33.7411 74.2938 33.9787 75.3932C34.2014 76.4781 34.4389 77.4907 34.7358 78.4455C36.6509 84.5066 43.4651 88.3979 49.7745 87.6891C55.8019 87.0237 59.6618 83.2047 61.473 77.9247C62.5419 74.7856 62.1114 71.6321 60.894 68.681C59.6767 65.8602 57.5834 62.7211 56.0246 60.0594Z" fill="black"/>
</svg>
