<svg width="128" height="128" viewBox="0 0 128 128" fill="none" xmlns="http://www.w3.org/2000/svg">
<rect width="128" height="128" fill="white"/>
<path fill-rule="evenodd" clip-rule="evenodd" d="M21 27.6108H30.4957L64.01 76.3934L68.1594 70.3297L54.6938 51.4172C49.7465 44.9245 43.5024 35.7023 41.8267 27.5914C40.6896 22.0736 41.6671 16.0879 44.6994 11.311C48.1705 5.83223 53.5567 2.53716 60.3992 2.06923C67.2018 1.60129 72.8075 3.47304 77.7947 8.67885C78.074 8.95181 78.3333 9.0493 78.6326 8.95181C78.9517 8.83483 79.6101 8.11343 79.9093 7.84046C82.1835 5.81273 84.5973 4.60389 87.1907 4.21394C87.2106 4.93535 87.2306 5.2863 87.2306 5.2863C81.6449 9.45875 82.7421 14.2161 82.7022 20.1628C82.4628 24.1013 81.0663 27.2404 78.5129 29.5801C76.2786 31.7833 73.6054 33.1286 70.4734 33.616C70.4734 32.7192 70.4734 32.2707 70.4734 32.2707C75.5006 29.4241 76.5379 24.0038 74.8822 18.8955C72.9272 12.8708 66.4437 9.10779 59.6611 10.6481C55.7112 11.545 52.28 14.2161 50.8437 18.1741C48.1106 25.7001 53.6764 35.0979 57.9654 41.259L73.3062 62.9012L97.6838 27.5524H106.96L107 93.1222L97.3048 93.2391V41.9999L68.7379 83.237C70.8724 86.1421 72.8075 89.2617 74.5031 92.6152C77.1364 97.8015 75.9794 104.86 71.1517 108.447C65.8652 112.386 57.8058 111.196 54.1352 105.698C51.083 101.136 51.8212 96.4757 53.9557 91.8353C54.8135 89.9831 55.9107 88.0723 57.2672 86.1226C60.5987 90.8995 62.2744 93.2976 62.2744 93.2976C60.7583 95.5398 58.923 99.4588 61.0775 101.799C61.9951 102.812 63.4514 103.261 64.8877 102.929C67.5808 102.305 68.2192 99.8683 67.92 97.5091C67.6606 95.4619 64.5286 91.2114 63.212 89.1837L30.6952 42.0194L30.5755 92.8492H21V27.6108Z" fill="black"/>
<path fill-rule="evenodd" clip-rule="evenodd" d="M74.7829 80.254L79.9896 72.767C81.7252 75.5941 84.4981 79.8055 86.7723 83.9C89.8843 89.4958 91.7595 94.8575 91.4403 100.59C90.9615 109.032 86.3334 116.597 79.4111 121.296C71.1522 126.872 61.6565 127.243 53.5173 123.714C48.4104 121.491 43.8221 117.748 40.3909 112.776C40.2712 112.6 40.0717 112.191 39.8523 112.191C39.573 112.191 39.4533 112.444 39.3137 112.639C37.618 115.057 35.264 116.519 32.2318 117.007C31.753 117.085 30.6758 117.436 30.576 116.734C30.4962 116.246 31.354 115.817 31.733 115.544C37.1991 111.489 36.441 106.965 36.9397 101.701C37.1193 99.9269 37.2789 98.2306 38.1367 97.1192C39.3935 95.5205 42.4656 95.1695 43.7822 96.9048C44.3607 97.6652 44.8395 99.4394 45.1587 100.921C45.4579 102.384 45.7771 103.748 46.1761 105.035C48.7495 113.205 57.9061 118.449 66.3844 117.494C74.4837 116.597 79.6704 111.45 82.1042 104.333C83.5405 100.102 82.962 95.8519 81.3262 91.8744C79.6904 88.0724 76.8776 83.8415 74.7829 80.254Z" fill="black"/>
</svg>
