<svg width="32" height="32" viewBox="0 0 32 32" fill="none" xmlns="http://www.w3.org/2000/svg">
<rect width="32" height="32" fill="white"/>
<path fill-rule="evenodd" clip-rule="evenodd" d="M6 7.78309H8.09789L15.5022 18.7985L16.4189 17.4293L13.444 13.1587C12.351 11.6926 10.9715 9.61019 10.6013 7.77869C10.35 6.53274 10.566 5.18113 11.2359 4.10248C12.0028 2.86534 13.1928 2.1213 14.7045 2.01563C16.2074 1.90997 17.4458 2.33262 18.5477 3.50813C18.6094 3.56976 18.6667 3.59178 18.7328 3.56976C18.8033 3.54335 18.9487 3.38045 19.0148 3.31881C19.5173 2.86094 20.0506 2.58798 20.6235 2.49992C20.6279 2.66282 20.6323 2.74207 20.6323 2.74207C19.3983 3.68423 19.6407 4.75848 19.6319 6.10128C19.579 6.99062 19.2705 7.69944 18.7063 8.22776C18.2127 8.72526 17.6221 9.02904 16.9302 9.13911C16.9302 8.93659 16.9302 8.83533 16.9302 8.83533C18.0408 8.19254 18.27 6.9686 17.9042 5.81511C17.4723 4.4547 16.0399 3.60499 14.5414 3.95279C13.6688 4.15532 12.9107 4.75848 12.5934 5.65222C11.9896 7.35163 13.2192 9.47371 14.1668 10.8649L17.556 15.7519L22.9418 7.76989H24.9912L25 22.576L22.858 22.6024V11.0322L16.5467 20.3438C17.0183 20.9998 17.4458 21.7043 17.8205 22.4615C18.4022 23.6326 18.1466 25.2264 17.08 26.0364C15.9121 26.9258 14.1315 26.6572 13.3206 25.4157C12.6463 24.3855 12.8093 23.3332 13.2809 22.2854C13.4704 21.8671 13.7128 21.4357 14.0125 20.9954C14.7486 22.0741 15.1188 22.6156 15.1188 22.6156C14.7838 23.1219 14.3783 24.0068 14.8543 24.5351C15.0571 24.7641 15.3788 24.8653 15.6961 24.7905C16.2911 24.6496 16.4322 24.0993 16.366 23.5666C16.3087 23.1043 15.6168 22.1445 15.3259 21.6866L8.14196 11.0366L8.11552 22.5143H6V7.78309Z" fill="black"/>
<path fill-rule="evenodd" clip-rule="evenodd" d="M17.8825 19.6702L19.0329 17.9796C19.4163 18.618 20.0289 19.569 20.5313 20.4935C21.2189 21.7571 21.6332 22.9678 21.5627 24.2622C21.4569 26.1685 20.4344 27.8768 18.905 28.9378C17.0804 30.1969 14.9825 30.2806 13.1843 29.4837C12.0561 28.9818 11.0424 28.1365 10.2843 27.0138C10.2579 26.9742 10.2138 26.8818 10.1653 26.8818C10.1036 26.8818 10.0772 26.939 10.0463 26.983C9.67168 27.5289 9.15162 27.8591 8.4817 27.9692C8.37593 27.9868 8.13793 28.0661 8.1159 27.9076C8.09827 27.7975 8.28778 27.7006 8.37152 27.639C9.57913 26.7233 9.41165 25.7018 9.52184 24.5131C9.5615 24.1125 9.59676 23.7295 9.78627 23.4785C10.0639 23.1175 10.7427 23.0383 11.0335 23.4301C11.1614 23.6018 11.2671 24.0024 11.3377 24.337C11.4038 24.6672 11.4743 24.9754 11.5624 25.266C12.131 27.1107 14.1539 28.295 16.0271 28.0793C17.8164 27.8768 18.9623 26.7145 19.5 25.1075C19.8174 24.1521 19.6895 23.1923 19.3281 22.2942C18.9667 21.4357 18.3453 20.4803 17.8825 19.6702Z" fill="black"/>
</svg>
