<svg width="16" height="16" viewBox="0 0 16 16" fill="none" xmlns="http://www.w3.org/2000/svg">
<rect width="16" height="16" fill="white"/>
<path fill-rule="evenodd" clip-rule="evenodd" d="M3 3.89155H4.10415L8.00116 9.39925L8.48365 8.71464L6.91788 6.57936C6.34261 5.84632 5.61656 4.8051 5.42171 3.88935C5.28949 3.26637 5.40315 2.59057 5.75574 2.05124C6.15936 1.43267 6.78567 1.06065 7.5813 1.00782C8.3723 0.954984 9.02413 1.16631 9.60404 1.75406C9.63651 1.78488 9.66667 1.79589 9.70146 1.78488C9.73858 1.77167 9.81512 1.69023 9.84992 1.65941C10.1144 1.43047 10.395 1.29399 10.6966 1.24996C10.6989 1.33141 10.7012 1.37103 10.7012 1.37103C10.0517 1.84212 10.1793 2.37924 10.1747 3.05064C10.1468 3.49531 9.98446 3.84972 9.68754 4.11388C9.42774 4.36263 9.11691 4.51452 8.75273 4.56955C8.75273 4.46829 8.75273 4.41766 8.75273 4.41766C9.33728 4.09627 9.4579 3.4843 9.26537 2.90756C9.03804 2.22735 8.28416 1.80249 7.49548 1.9764C7.03619 2.07766 6.63721 2.37924 6.47019 2.82611C6.1524 3.67582 6.79958 4.73685 7.29831 5.43247L9.08212 7.87594L11.9167 3.88494H12.9954L13 11.288L11.8727 11.3012V5.51612L8.55092 10.1719C8.79912 10.4999 9.02413 10.8521 9.22129 11.2308C9.52749 11.8163 9.39295 12.6132 8.83159 13.0182C8.21689 13.4629 7.27975 13.3286 6.85293 12.7078C6.49803 12.1927 6.58386 11.6666 6.83206 11.1427C6.9318 10.9336 7.05938 10.7178 7.21712 10.4977C7.6045 11.037 7.79935 11.3078 7.79935 11.3078C7.62306 11.561 7.40965 12.0034 7.66017 12.2676C7.76688 12.382 7.93621 12.4327 8.10322 12.3953C8.41638 12.3248 8.49061 12.0496 8.45581 11.7833C8.42566 11.5521 8.06147 11.0723 7.90837 10.8433L4.12735 5.51832L4.11343 11.2572H3V3.89155Z" fill="black"/>
<path fill-rule="evenodd" clip-rule="evenodd" d="M9.25374 9.83512L9.85917 8.98981C10.061 9.309 10.3834 9.78448 10.6478 10.2468C11.0097 10.8785 11.2278 11.4839 11.1906 12.1311C11.135 13.0843 10.5968 13.9384 9.7919 14.4689C8.83156 15.0985 7.72741 15.1403 6.78099 14.7419C6.18716 14.4909 5.65364 14.0683 5.25466 13.5069C5.24075 13.4871 5.21755 13.4409 5.19203 13.4409C5.15956 13.4409 5.14564 13.4695 5.1294 13.4915C4.93223 13.7645 4.65852 13.9296 4.30593 13.9846C4.25026 13.9934 4.125 14.033 4.1134 13.9538C4.10412 13.8988 4.20386 13.8503 4.24794 13.8195C4.88352 13.3616 4.79537 12.8509 4.85337 12.2566C4.87424 12.0562 4.8928 11.8647 4.99254 11.7393C5.13868 11.5587 5.49591 11.5191 5.649 11.715C5.71627 11.8009 5.77195 12.0012 5.80906 12.1685C5.84386 12.3336 5.88097 12.4877 5.92736 12.633C6.2266 13.5553 7.29132 14.1475 8.27717 14.0396C9.21894 13.9384 9.82205 13.3572 10.105 12.5537C10.2721 12.0761 10.2048 11.5962 10.0146 11.1471C9.82437 10.7178 9.4973 10.2402 9.25374 9.83512Z" fill="black"/>
</svg>
