<svg width="310" height="150" viewBox="0 0 310 150" fill="none" xmlns="http://www.w3.org/2000/svg">
<rect width="310" height="150" fill="white"/>
<path fill-rule="evenodd" clip-rule="evenodd" d="M104 32.1547H115.262L155.012 89.5922L159.933 82.4527L143.962 60.1847C138.095 52.5402 130.689 41.6817 128.701 32.1318C127.353 25.635 128.512 18.5873 132.109 12.963C136.225 6.51214 142.614 2.63247 150.729 2.08151C158.798 1.53055 165.446 3.73439 171.361 9.86381C171.692 10.1852 172 10.3 172.355 10.1852C172.733 10.0475 173.514 9.19807 173.869 8.87668C176.566 6.48918 179.429 5.06587 182.505 4.60674C182.529 5.45613 182.553 5.86935 182.553 5.86935C175.928 10.7821 177.229 16.3835 177.182 23.3853C176.898 28.0225 175.241 31.7185 172.213 34.4733C169.563 37.0674 166.392 38.6514 162.678 39.2253C162.678 38.1693 162.678 37.6413 162.678 37.6413C168.64 34.2897 169.871 27.9077 167.907 21.8931C165.588 14.7995 157.898 10.3689 149.854 12.1824C145.169 13.2384 141.1 16.3835 139.396 21.0437C136.154 29.905 142.756 40.9701 147.843 48.2243L166.038 73.7062L194.951 32.0858H205.953L206 109.289L194.501 109.427V49.0967L160.619 97.65C163.151 101.071 165.446 104.744 167.457 108.692C170.58 114.799 169.208 123.109 163.482 127.333C157.212 131.97 147.653 130.57 143.3 124.096C139.68 118.724 140.555 113.238 143.087 107.774C144.104 105.593 145.406 103.343 147.015 101.048C150.966 106.672 152.953 109.496 152.953 109.496C151.155 112.136 148.978 116.75 151.534 119.505C152.622 120.698 154.349 121.226 156.053 120.836C159.247 120.102 160.004 117.232 159.649 114.454C159.342 112.044 155.627 107.039 154.065 104.652L115.499 49.1197L115.357 108.968H104V32.1547Z" fill="black"/>
<path fill-rule="evenodd" clip-rule="evenodd" d="M167.789 94.1378L173.965 85.3224C176.023 88.6512 179.312 93.6098 182.009 98.4307C185.7 105.019 187.924 111.332 187.546 118.082C186.978 128.022 181.489 136.929 173.278 142.462C163.483 149.027 152.221 149.463 142.567 145.308C136.51 142.691 131.068 138.283 126.999 132.429C126.857 132.223 126.62 131.741 126.36 131.741C126.029 131.741 125.887 132.039 125.721 132.269C123.71 135.115 120.918 136.837 117.322 137.411C116.754 137.503 115.476 137.916 115.358 137.09C115.263 136.516 116.28 136.011 116.73 135.689C123.213 130.914 122.314 125.588 122.905 119.39C123.118 117.301 123.308 115.304 124.325 113.995C125.816 112.113 129.459 111.7 131.021 113.743C131.707 114.638 132.275 116.727 132.653 118.472C133.008 120.194 133.387 121.801 133.86 123.316C136.912 132.935 147.772 139.11 157.828 137.985C167.434 136.929 173.586 130.868 176.473 122.489C178.176 117.508 177.49 112.503 175.55 107.82C173.61 103.343 170.274 98.3618 167.789 94.1378Z" fill="black"/>
</svg>
