<svg width="150" height="150" viewBox="0 0 150 150" fill="none" xmlns="http://www.w3.org/2000/svg">
<rect width="150" height="150" fill="white"/>
<path fill-rule="evenodd" clip-rule="evenodd" d="M24 32.1547H35.2624L75.0118 89.5922L79.9332 82.4527L63.9624 60.1847C58.0946 52.5402 50.6889 41.6817 48.7015 32.1318C47.3528 25.635 48.5122 18.5873 52.1086 12.963C56.2255 6.51214 62.6138 2.63247 70.7293 2.08151C78.7975 1.53055 85.4461 3.73439 91.3612 9.86381C91.6924 10.1852 92 10.3 92.3549 10.1852C92.7335 10.0475 93.5143 9.19807 93.8692 8.87668C96.5665 6.48918 99.4294 5.06587 102.505 4.60674C102.529 5.45613 102.553 5.86935 102.553 5.86935C95.9276 10.7821 97.229 16.3835 97.1816 23.3853C96.8977 28.0225 95.2415 31.7185 92.2129 34.4733C89.563 37.0674 86.3925 38.6514 82.6778 39.2253C82.6778 38.1693 82.6778 37.6413 82.6778 37.6413C88.6402 34.2897 89.8706 27.9077 87.9067 21.8931C85.588 14.7995 77.8984 10.3689 69.8539 12.1824C65.1691 13.2384 61.0995 16.3835 59.396 21.0437C56.1545 29.905 62.7557 40.9701 67.8427 48.2243L86.0376 73.7062L114.951 32.0858H125.953L126 109.289L114.501 109.427V49.0967L80.6194 97.65C83.151 101.071 85.4461 104.744 87.4572 108.692C90.5804 114.799 89.2081 123.109 83.4823 127.333C77.2123 131.97 67.6534 130.57 63.2999 124.096C59.6799 118.724 60.5553 113.238 63.087 107.774C64.1044 105.593 65.4057 103.343 67.0146 101.048C70.9659 106.672 72.9534 109.496 72.9534 109.496C71.1552 112.136 68.9784 116.75 71.5338 119.505C72.6221 120.698 74.3493 121.226 76.0529 120.836C79.247 120.102 80.0042 117.232 79.6493 114.454C79.3417 112.044 75.627 107.039 74.0654 104.652L35.499 49.1197L35.357 108.968H24V32.1547Z" fill="black"/>
<path fill-rule="evenodd" clip-rule="evenodd" d="M87.7892 94.1378L93.9646 85.3224C96.023 88.6512 99.3118 93.6098 102.009 98.4307C105.7 105.019 107.924 111.332 107.546 118.082C106.978 128.022 101.489 136.929 93.2784 142.462C83.483 149.027 72.2207 149.463 62.5672 145.308C56.5101 142.691 51.0682 138.283 46.9987 132.429C46.8567 132.223 46.6201 131.741 46.3598 131.741C46.0286 131.741 45.8866 132.039 45.721 132.269C43.7099 135.115 40.9179 136.837 37.3216 137.411C36.7537 137.503 35.476 137.916 35.3577 137.09C35.2631 136.516 36.2805 136.011 36.73 135.689C43.213 130.914 42.3139 125.588 42.9054 119.39C43.1184 117.301 43.3076 115.304 44.325 113.995C45.8156 112.113 49.4593 111.7 51.0209 113.743C51.7071 114.638 52.2749 116.727 52.6535 118.472C53.0084 120.194 53.387 121.801 53.8602 123.316C56.9124 132.935 67.7725 139.11 77.8282 137.985C87.4343 136.929 93.586 130.868 96.4726 122.489C98.1761 117.508 97.49 112.503 95.5498 107.82C93.6097 103.343 90.2735 98.3618 87.7892 94.1378Z" fill="black"/>
</svg>
