<svg width="310" height="310" viewBox="0 0 310 310" fill="none" xmlns="http://www.w3.org/2000/svg">
<rect width="310" height="310" fill="white"/>
<path fill-rule="evenodd" clip-rule="evenodd" d="M48 65.201H71.5184L154.525 185.584L164.802 170.62L131.451 123.949C119.198 107.927 103.733 85.1685 99.5825 65.1529C96.7662 51.5364 99.1872 36.7652 106.697 24.9771C115.294 11.4569 128.635 3.32558 145.582 2.17083C162.43 1.01608 176.314 5.63508 188.666 18.4817C189.358 19.1553 190 19.3959 190.741 19.1553C191.532 18.8666 193.162 17.0864 193.903 16.4128C199.536 11.4088 205.514 8.42573 211.937 7.46344C211.987 9.24368 212.036 10.1097 212.036 10.1097C198.202 20.4063 200.919 32.1462 200.82 46.8212C200.228 56.5403 196.769 64.2868 190.445 70.0605C184.911 75.4975 178.29 78.8174 170.533 80.0202C170.533 77.807 170.533 76.7004 170.533 76.7004C182.984 69.6756 185.553 56.2998 181.452 43.6937C176.61 28.8263 160.553 19.5402 143.754 23.3413C133.971 25.5545 125.473 32.1462 121.915 41.9135C115.146 60.4857 128.931 83.677 139.554 98.8812L177.549 152.288L237.926 65.0566H260.901L261 226.866L236.987 227.155V100.71L166.235 202.472C171.521 209.641 176.314 217.339 180.514 225.615C187.036 238.414 184.17 255.831 172.213 264.684C159.12 274.403 139.159 271.468 130.068 257.9C122.508 246.641 124.336 235.142 129.623 223.69C131.747 219.12 134.465 214.404 137.825 209.593C146.076 221.381 150.226 227.299 150.226 227.299C146.471 232.832 141.926 242.503 147.262 248.277C149.534 250.779 153.141 251.886 156.699 251.068C163.369 249.528 164.95 243.514 164.209 237.692C163.566 232.64 155.809 222.151 152.548 217.147L72.0125 100.758L71.7161 226.192H48V65.201Z" fill="black"/>
<path fill-rule="evenodd" clip-rule="evenodd" d="M181.207 195.111L194.102 176.635C198.401 183.611 205.269 194.004 210.901 204.108C218.609 217.917 223.253 231.148 222.463 245.294C221.277 266.128 209.814 284.796 192.669 296.392C172.214 310.153 148.696 311.067 128.537 302.358C115.889 296.873 104.525 287.635 96.0265 275.366C95.73 274.933 95.2359 273.922 94.6924 273.922C94.0007 273.922 93.7043 274.548 93.3584 275.029C89.1587 280.995 83.3285 284.604 75.8184 285.807C74.6326 285.999 71.9645 286.865 71.7175 285.133C71.5199 283.93 73.6444 282.872 74.5832 282.198C88.1211 272.19 86.2436 261.028 87.4788 248.037C87.9235 243.658 88.3187 239.472 90.4433 236.73C93.556 232.784 101.165 231.918 104.426 236.201C105.859 238.077 107.045 242.455 107.835 246.112C108.576 249.721 109.367 253.089 110.355 256.264C116.729 276.424 139.407 289.367 160.406 287.01C180.466 284.796 193.312 272.094 199.34 254.532C202.897 244.091 201.464 233.602 197.413 223.787C193.361 214.405 186.395 203.964 181.207 195.111Z" fill="black"/>
</svg>
