<svg width="70" height="70" viewBox="0 0 70 70" fill="none" xmlns="http://www.w3.org/2000/svg">
<rect width="70" height="70" fill="white"/>
<path fill-rule="evenodd" clip-rule="evenodd" d="M12 15.6316H17.0791L35.0053 41.5965L37.2248 38.369L30.0223 28.3027C27.376 24.8469 24.0362 19.9383 23.1399 15.6212C22.5317 12.6843 23.0545 9.49838 24.6764 6.95586C26.5331 4.03973 29.4141 2.28591 33.074 2.03685C36.7126 1.78778 39.711 2.78404 42.3786 5.55487C42.528 5.70016 42.6667 5.75205 42.8267 5.70016C42.9974 5.63789 43.3496 5.25392 43.5096 5.10863C44.7261 4.02936 46.0172 3.38594 47.4043 3.17839C47.415 3.56236 47.4257 3.74916 47.4257 3.74916C44.438 5.96998 45.0248 8.50213 45.0035 11.6673C44.8754 13.7636 44.1285 15.4344 42.7627 16.6797C41.5676 17.8524 40.1378 18.5685 38.4625 18.8279C38.4625 18.3505 38.4625 18.1118 38.4625 18.1118C41.1515 16.5967 41.7063 13.7117 40.8207 10.9928C39.775 7.78607 36.3071 5.78318 32.6792 6.60302C30.5665 7.08039 28.7312 8.50213 27.9629 10.6088C26.501 14.6146 29.4781 19.6166 31.7722 22.8959L39.9777 34.4151L53.0169 15.6004H57.9787L58 50.5005L52.8142 50.5628V23.2903L37.5342 45.239C38.6759 46.7853 39.711 48.4457 40.618 50.2307C42.0264 52.9911 41.4076 56.7479 38.8253 58.6573C35.9977 60.7536 31.6868 60.1206 29.7235 57.1941C28.0909 54.7657 28.4857 52.2855 29.6275 49.8156C30.0863 48.8297 30.6732 47.8127 31.3987 46.7749C33.1807 49.3175 34.077 50.5939 34.077 50.5939C33.2661 51.7873 32.2844 53.8732 33.4368 55.1186C33.9276 55.6582 34.7066 55.8969 35.4748 55.7205C36.9153 55.3884 37.2568 54.0912 37.0967 52.8355C36.958 51.7458 35.2828 49.4835 34.5785 48.4042L17.1858 23.3007L17.1218 50.3552H12V15.6316Z" fill="black"/>
<path fill-rule="evenodd" clip-rule="evenodd" d="M40.7675 43.6513L43.5525 39.6663C44.4808 41.1711 45.964 43.4127 47.1804 45.592C48.845 48.5704 49.848 51.4242 49.6772 54.4752C49.4212 58.9688 46.9456 62.9953 43.243 65.4963C38.8255 68.4643 33.7464 68.6615 29.3929 66.7831C26.6612 65.6001 24.2071 63.6076 22.3718 60.9613C22.3077 60.8679 22.201 60.6499 22.0837 60.6499C21.9343 60.6499 21.8702 60.7849 21.7956 60.8886C20.8886 62.1755 19.6295 62.9538 18.0076 63.2132C17.7515 63.2547 17.1753 63.4415 17.1219 63.0679C17.0792 62.8085 17.5381 62.5802 17.7408 62.4349C20.6645 60.2764 20.259 57.8687 20.5258 55.0668C20.6218 54.1224 20.7072 53.2195 21.166 52.628C21.8382 51.7771 23.4815 51.5903 24.1857 52.5139C24.4952 52.9186 24.7512 53.863 24.922 54.6517C25.082 55.43 25.2528 56.1564 25.4662 56.8413C26.8426 61.1896 31.7403 63.9812 36.2753 63.4727C40.6074 62.9953 43.3817 60.2556 44.6835 56.4678C45.4518 54.2158 45.1423 51.9535 44.2674 49.8364C43.3924 47.8128 41.8879 45.5608 40.7675 43.6513Z" fill="black"/>
</svg>
